<svg width="314" height="318" viewBox="0 0 314 318" fill="none" xmlns="http://www.w3.org/2000/svg">
<path d="M137.406 317.115C128.692 315.641 119.734 314.986 111.327 312.483C101.322 309.503 91.6572 305.233 82.1003 300.952C75.819 298.138 69.8212 294.582 63.9882 290.897C45.3978 279.151 30.4817 263.788 18.9829 244.991C7.46369 226.16 1.68696 205.709 0.258064 183.807C-0.988091 164.706 2.32056 146.342 9.28053 128.704C14.6975 114.976 22.6708 102.793 32.2841 91.3858C43.2568 78.3653 56.4039 68.9429 71.8803 62.5692C93.4773 53.6748 115.891 52.2024 138.343 58.0844C163.846 64.7655 184.672 78.5989 198.587 101.652C220.727 138.331 209.08 188.89 173.364 211.095C143.941 229.388 103.663 220.409 85.6843 191.548C69.0289 164.811 81.8057 127.321 110.639 118.546C123.288 114.696 134.99 117.073 146.191 124.908C146.832 125.559 147.114 125.719 147.454 125.778C147.292 126.449 147.129 127.119 146.967 127.79C146.086 127.336 145.159 126.954 144.332 126.418C120.174 110.774 91.0015 125.363 85.2169 153.918C80.0744 179.304 96.3216 203.161 122.847 209.682C154.01 217.343 183.896 199.317 193.554 167.031C204.027 132.025 187.43 96.5972 153.249 80.9939C110.176 61.3315 63.4794 76.8222 39.3372 118.782C12.09 166.139 23.9207 224.382 67.6163 258.002C112.787 292.757 174.757 295.084 222.009 263.79C223.383 262.88 224.696 261.879 226.491 260.598C225.378 258.963 224.393 257.516 223.408 256.068C214.734 243.304 214.585 226.953 223.029 214.721C231.924 201.837 246.807 195.708 261.934 199.599C287.353 206.138 300.465 236.771 279.799 260.496C266.796 275.424 251.681 287.934 234.411 297.439C215.817 307.672 195.96 314.847 174.586 316.626C164.849 317.436 155.043 317.41 144.462 317.654C141.573 317.401 139.49 317.258 137.406 317.115Z" fill="white"/>
<path d="M256.269 159.885C263.968 144.582 277.425 140.351 291.061 143.665C305.712 147.226 314.362 160.355 313.234 175.52C312.345 187.456 302.357 198.537 289.948 201.689C278.369 204.63 268.889 200.716 261.288 192.386C252.732 183.01 251.535 171.966 256.269 159.885Z" fill="white"/>
<path d="M258.991 100.593C269.222 82.0896 291.76 81.1866 302.305 98.5211C310.277 111.626 302.363 129.723 287.13 133.769C277.559 136.311 269.752 133.358 263.387 126.518C256.518 119.137 255.368 110.353 258.991 100.593Z" fill="white"/>
<path d="M270.936 63.0258C267.567 72.0978 261.541 77.0779 252.073 77.1255C244.433 77.164 237.331 72.1692 234.548 65.1478C231.438 57.3022 233.285 49.4001 239.673 43.2279C244.322 38.7352 253.254 37.3757 259.703 40.199C267.52 43.6214 271.59 49.4843 271.311 58.1445C271.263 59.6409 271.148 61.1352 270.936 63.0258Z" fill="white"/>
<path d="M191.22 31.8535C186.812 22.5973 187.514 16.9593 193.507 11.4584C199.038 6.38231 208.041 6.55614 213.738 11.8489C219.424 17.1321 220.083 26.6512 215.17 32.5464C210.456 38.2027 201.394 39.4534 195.314 35.24C193.959 34.3013 192.723 33.1922 191.22 31.8535Z" fill="white"/>
<path d="M154.858 13.3009C152.939 18.8245 149.744 22.6455 144.066 23.2271C139.444 23.7006 136.161 21.4771 133.504 17.46C130.721 13.2523 130.9 9.56714 133.241 5.46982C135.815 0.965454 139.93 -0.393524 144.647 0.0936123C149.007 0.543854 152.568 2.71603 154.088 7.09756C154.722 8.92633 154.703 10.9817 154.858 13.3009Z" fill="white"/>
<path d="M76.9114 25.6977C75.9825 20.9537 77.5037 17.0709 81.7605 16.1598C84.6159 15.5488 88.5565 16.7871 91.057 18.551C94.1992 20.7677 94.3864 25.0028 91.9843 27.909C90.1642 30.1113 86.8742 32.464 84.3338 32.3624C81.1033 32.2332 77.3191 30.4274 76.9114 25.6977Z" fill="white"/>
<path d="M38.6223 64.4725C36.5247 64.4059 34.4069 64.7389 33.131 63.8558C30.3234 61.9126 28.5287 58.4891 31.6529 56.0953C33.6956 54.5302 37.9422 54.0898 40.3136 55.1437C43.3597 56.4975 42.9792 60.0241 40.868 62.7433C40.3772 63.3755 39.6192 63.8003 38.6223 64.4725Z" fill="white"/>
<path d="M158.302 154.903C158.632 145.652 155.615 137.632 149.581 130.288C150.013 129.44 150.291 129.084 150.569 128.728C158.485 135.387 161 144.131 159.991 154.514C159.179 154.924 158.74 154.914 158.302 154.903Z" fill="white"/>
<path d="M158.102 155.222C158.74 154.914 159.179 154.924 159.942 154.882C160.665 162.265 156.681 167.534 151.434 173.285C153.823 166.732 155.863 161.136 158.102 155.222Z" fill="white"/>
<path d="M7.96759 113.573C4.93146 116.129 3.75208 113.652 3.09418 111.851C2.71185 110.805 3.48358 108.415 4.33887 108.052C5.64429 107.499 7.4715 108.178 9.07721 108.334C8.79584 109.999 8.51441 111.664 7.96759 113.573Z" fill="white"/>
<path d="M137.701 317.282C139.49 317.258 141.573 317.401 143.997 317.718C142.224 317.744 140.109 317.597 137.701 317.282Z" fill="white"/>
<path d="M150.281 128.458C150.291 129.084 150.013 129.44 149.448 129.981C148.871 129.391 148.583 128.617 148.294 127.843C148.86 127.958 149.426 128.073 150.281 128.458Z" fill="white"/>
<path d="M147.326 125.565C147.114 125.719 146.832 125.559 146.477 125.087C146.69 124.926 146.975 125.084 147.326 125.565Z" fill="white"/>
</svg>
